<svg xmlns="http://www.w3.org/2000/svg" xmlns:xlink="http://www.w3.org/1999/xlink" width="499.932" height="369" viewBox="0 0 499.932 369">
    <defs>
        <linearGradient id="linear-gradient" x2="1" y1=".5" y2=".5" gradientUnits="objectBoundingBox">
            <stop offset="0" stop-color="#467dfa"/>
            <stop offset="1" stop-color="#0e6dbd"/>
        </linearGradient>
        <linearGradient id="linear-gradient-2" x2="1" y1=".5" y2=".5" gradientUnits="objectBoundingBox">
            <stop offset="0" stop-color="#fff"/>
            <stop offset="1" stop-color="#e6f3fb"/>
        </linearGradient>
        <linearGradient id="linear-gradient-3" x2="1" y1=".5" y2=".5" gradientUnits="objectBoundingBox">
            <stop offset="0" stop-color="#1fd0f0"/>
            <stop offset="1" stop-color="#06baeb"/>
        </linearGradient>
        <linearGradient id="linear-gradient-4" x2="1" y1=".5" y2=".5" gradientUnits="objectBoundingBox">
            <stop offset="0" stop-color="#fe9658"/>
            <stop offset="1" stop-color="#f76e48"/>
        </linearGradient>
        <linearGradient id="linear-gradient-5" x1=".329" x2="1.199" y1=".784" y2=".784" xlink:href="#linear-gradient-4"/>
        <linearGradient id="linear-gradient-6" x1=".461" x2="1.403" y1=".533" y2=".533" xlink:href="#linear-gradient-3"/>
        <linearGradient id="linear-gradient-7" x1=".372" x2="1.301" y1="1.659" y2="1.659" xlink:href="#linear-gradient-3"/>
        <radialGradient id="radial-gradient" cx=".5" cy=".5" r=".5" gradientUnits="objectBoundingBox">
            <stop offset="0" stop-color="#f7504c"/>
            <stop offset="1" stop-color="#ffd669"/>
        </radialGradient>
        <style>
            .cls-3{fill:#467dfa}.cls-6{fill:#0e6dbd}.cls-7{fill:#d9ddfc}.cls-9{fill:#e6f3fb}.cls-10{fill:#f76e48}.cls-11{fill:#fe9658}.cls-13{fill:#fab5a3}.cls-16{fill:#0f0}.cls-18{fill:#06baeb}.cls-19{fill:#ffd669}.cls-20{fill:#231f20}.cls-24{fill:url(#radial-gradient)}.cls-25{fill:#ff3e6c}.cls-26{fill:#fefefe}
        </style>
    </defs>
    <g id="Group_1294" data-name="Group 1294" transform="translate(-1089.068 -199)">
        <g id="Group_1187" data-name="Group 1187" transform="translate(1089.068 209.888)">
            <ellipse id="Ellipse_74" cx="149.374" cy="4.778" fill="#9fbbfc" data-name="Ellipse 74" rx="149.374" ry="4.778" transform="translate(91.729 348.556)"/>
            <path id="Path_3106" fill="url(#linear-gradient)" d="M1020.236 848.359v152.9a19.167 19.167 0 0 1-19.112 19.112H752.663a19.136 19.136 0 0 1-19.113-19.112v-152.9a19.169 19.169 0 0 1 19.113-19.112h248.461a19.159 19.159 0 0 1 19.112 19.112z" data-name="Path 3106" transform="translate(-636.132 -710.041)"/>
            <path id="Path_3107" d="M1267.471 1748.968h-95.562l7.741-34.855 1.815-8.147H1205c-.143.574-.287 1.148-.43 1.745a10.763 10.763 0 0 0 2.2 9.771c2.653 3.178 7.263 5.207 12.925 5.207a18.559 18.559 0 0 0 9.533-2.389c4.54-2.653 6.88-7.312 5.59-12.589-.145-.6-.287-1.171-.429-1.745h23.531l4.086 18.42z" class="cls-3" data-name="Path 3107" transform="translate(-978.928 -1395.633)"/>
            <path id="Path_3108" fill="url(#linear-gradient-2)" d="M1069.685 926.475v133.788H821.224V926.475a9.584 9.584 0 0 1 9.556-9.556h229.35a9.583 9.583 0 0 1 9.555 9.556z" data-name="Path 3108" transform="translate(-704.693 -778.6)"/>
            <path id="Path_3109" fill="url(#linear-gradient-3)" d="M1020.236 1574.458v9.556a19.167 19.167 0 0 1-19.112 19.113H752.663a19.136 19.136 0 0 1-19.113-19.113v-9.556z" data-name="Path 3109" transform="translate(-636.132 -1292.795)"/>
            <path id="Path_3110" d="M1249.609 1868.946h-109.372l.048-.238a12.52 12.52 0 0 1 11.635-9.319h86.006a12.519 12.519 0 0 1 11.635 9.319z" class="cls-6" data-name="Path 3110" transform="translate(-954.161 -1515.612)"/>
            <path id="Path_3111" d="M1234.533 1717.481l-27.115-3.369 1.815-8.147h23.532c-.143.574-.287 1.148-.43 1.745a10.762 10.762 0 0 0 2.198 9.771z" class="cls-6" data-name="Path 3111" transform="translate(-1006.697 -1395.633)"/>
            <path id="Path_3112" d="M1467.593 1724.384l-32.777-4.085c4.54-2.653 6.88-7.312 5.59-12.589-.145-.6-.287-1.171-.429-1.745h23.531z" class="cls-6" data-name="Path 3112" transform="translate(-1184.521 -1395.633)"/>
            <path id="Path_3113" d="M1111.246 838.814v52.559l-23.89-19.112h-71.671a19.169 19.169 0 0 1-19.113-19.113v-14.334a18.942 18.942 0 0 1 2.58-9.556h109.514a18.945 18.945 0 0 1 2.58 9.556z" class="cls-7" data-name="Path 3113" transform="translate(-841.815 -710.049)"/>
            <path id="Path_3114" fill="url(#linear-gradient-4)" d="M1067.405 738.77v50.17c0 1.314-.839 1.718-1.865.9l-22.025-17.62h-71.672a19.169 19.169 0 0 1-19.112-19.12v-14.33a19.169 19.169 0 0 1 19.112-19.112h76.449a19.182 19.182 0 0 1 19.113 19.112z" data-name="Path 3114" transform="translate(-807.531 -624.342)"/>
            <path id="Rectangle_1367" d="M0 0H143.637V93.174H0z" class="cls-7" data-name="Rectangle 1367" transform="translate(133.255 166.987)"/>
            <path id="Path_3115" d="M1145.26 1148.266a31.741 31.741 0 1 1-31.74-31.741 31.74 31.74 0 0 1 31.74 31.741z" class="cls-9" data-name="Path 3115" transform="translate(-908.447 -934.692)"/>
            <path id="Path_3116" d="M1683.937 1260.594a5.023 5.023 0 0 1-4.969 4.778h-59.486a5 5 0 0 1-4.944-4.778s-1.005-29.2 4.944-38.226c2.629-4.014 9.913-7.5 9.913-7.5a25.525 25.525 0 0 1 9.1-2.054h19.112a31.29 31.29 0 0 1 9.246 1.7s.6.239 1.552.645v.025c2.725 1.194 8.292 3.942 10.559 7.19 6.192 8.857 4.973 38.22 4.973 38.22z" class="cls-7" data-name="Path 3116" transform="translate(-1325.013 -1009.988)"/>
            <path id="Path_3117" d="M1700.619 993.631h-4.778a14.377 14.377 0 0 0-14.334 14.334v9.556a14.31 14.31 0 0 0 7.022 12.3 14.126 14.126 0 0 0 7.312 2.032h4.778a14.123 14.123 0 0 0 7.312-2.032 14.31 14.31 0 0 0 7.022-12.3v-9.556a14.377 14.377 0 0 0-14.334-14.334z" class="cls-7" data-name="Path 3117" transform="translate(-1377.434 -838.589)"/>
            <g id="Group_1176" data-name="Group 1176" transform="translate(222.846 155.042)">
                <path id="Path_3118" d="M1636.091 1260.594a5.027 5.027 0 0 1-4.97 4.778h-59.488a5 5 0 0 1-4.944-4.778s-1.006-29.2 4.944-38.226c2.629-4.014 9.916-7.5 9.916-7.5a25.514 25.514 0 0 1 9.1-2.054h19.112a31.258 31.258 0 0 1 9.244 1.7s.6.239 1.554.645v.025c2.725 1.194 8.291 3.942 10.559 7.19 6.191 8.857 4.973 38.22 4.973 38.22z" class="cls-10" data-name="Path 3118" transform="translate(-1510.442 -1165.03)"/>
                <path id="Path_3119" d="M1626.367 1259.8a5.862 5.862 0 0 1-5.8 5.567h-48.929a5 5 0 0 1-4.944-4.778s-1.006-29.2 4.944-38.226c2.629-4.014 9.916-7.5 9.916-7.5a25.514 25.514 0 0 1 9.1-2.054h19.112a31.258 31.258 0 0 1 9.244 1.7s.6.239 1.554.645v.025c7.236 10.341 5.803 44.621 5.803 44.621z" class="cls-11" data-name="Path 3119" transform="translate(-1510.442 -1165.03)"/>
                <path id="Path_3120" fill="#313761" d="M1677.41 1007.965v2.389s-9.556 4.778-23.891-4.778c-2.389 4.778-9.556 4.778-9.556 4.778v-2.389a14.375 14.375 0 0 1 14.334-14.334h4.778a14.378 14.378 0 0 1 14.335 14.334z" data-name="Path 3120" transform="translate(-1570.921 -993.631)"/>
                <path id="Path_3121" d="M1677.41 1053.2v7.167a14.313 14.313 0 0 1-7.025 12.3 14.118 14.118 0 0 1-7.31 2.031h-4.775a14.119 14.119 0 0 1-7.312-2.031 14.311 14.311 0 0 1-7.022-12.3v-7.167s7.167 0 9.556-4.778c14.332 9.559 23.888 4.778 23.888 4.778z" class="cls-13" data-name="Path 3121" transform="translate(-1570.921 -1036.48)"/>
                <path id="Path_3122" d="M1428.727 1219.979l-21.791 7.923a6.662 6.662 0 0 1-7.265-2.256l-9.169-12.834-9.557 7.167 12.045 22.085a7.921 7.921 0 0 0 7.051 3.763l21.52-1.957z" class="cls-10" data-name="Path 3122" transform="translate(-1365.24 -1165.03)"/>
                <path id="Path_3123" d="M1334.167 1172.99s-.536-1.612-1.195-3.584-3.3-4.006-5.88-4.521l-14.521-2.9c-2.576-.516-4.162 1.148-3.525 3.7l.07.285a8.783 8.783 0 0 0 5.8 5.8l4.92 1.23 4.778 7.167z" class="cls-13" data-name="Path 3123" transform="translate(-1308.906 -1125.208)"/>
            </g>
            <g id="Group_1177" data-name="Group 1177" transform="translate(353.228 46.255)">
                <path id="Path_3124" fill="url(#linear-gradient-5)" d="M2045.418 602.638l-22.887 6.12a9.589 9.589 0 0 1-11.7-6.762l-3.655-13.636a9.635 9.635 0 0 1 6.747-11.745l25.162-6.862a9.532 9.532 0 0 1 11.693 6.717l8.039 30z" data-name="Path 3124" transform="translate(-1985.076 -553.11)"/>
                <path id="Path_3125" fill="url(#linear-gradient-6)" d="M1925.034 533.213l22.882-6.145a9.588 9.588 0 0 0 6.755-11.709l-3.653-13.636a9.635 9.635 0 0 0-11.714-6.8l-25.223 6.639a9.533 9.533 0 0 0-6.768 11.664l8.038 30z" data-name="Path 3125" transform="translate(-1906.988 -494.611)"/>
            </g>
            <g id="Group_1182" data-name="Group 1182" transform="translate(0 181.774)">
                <g id="Group_1178" data-name="Group 1178" transform="translate(14.996 15.901)">
                    <path id="Path_3126" d="M386.665 1199.624a1.183 1.183 0 0 1-.31-.041l-30-8.037a1.194 1.194 0 1 1 .618-2.307l30 8.038a1.195 1.195 0 0 1-.308 2.349z" class="cls-16" data-name="Path 3126" transform="translate(-355.47 -1189.195)"/>
                </g>
                <g id="Group_1179" data-name="Group 1179" transform="translate(12.523 25.132)">
                    <path id="Path_3127" d="M368.4 1240.11a1.187 1.187 0 0 1-.31-.041l-23.076-6.184a1.194 1.194 0 1 1 .618-2.307l23.076 6.184a1.195 1.195 0 0 1-.308 2.349z" class="cls-16" data-name="Path 3127" transform="translate(-344.126 -1231.536)"/>
                </g>
                <path id="Path_3128" fill="url(#linear-gradient-7)" d="M353.186 1139.412l-10.512 39.231a1.36 1.36 0 0 1-2.406.722l-14.2-12.593-32.307-8.656a9.585 9.585 0 0 1-6.758-11.7l6.184-23.076a9.584 9.584 0 0 1 11.7-6.758l41.538 11.131a9.584 9.584 0 0 1 6.761 11.699z" data-name="Path 3128" transform="translate(-286.679 -1116.254)"/>
                <g id="Group_1180" data-name="Group 1180" transform="translate(13.802 14.707)">
                    <path id="Path_3129" d="M382.38 1196.534a2.371 2.371 0 0 1-.62-.082l-30-8.037a2.389 2.389 0 1 1 1.24-4.615l30 8.038a2.389 2.389 0 0 1-.616 4.7z" class="cls-9" data-name="Path 3129" transform="translate(-349.989 -1183.716)"/>
                </g>
                <g id="Group_1181" data-name="Group 1181" transform="translate(11.329 23.936)">
                    <path id="Path_3130" d="M364.113 1237.016a2.36 2.36 0 0 1-.62-.083l-23.076-6.184a2.389 2.389 0 0 1 1.237-4.615l23.076 6.183a2.39 2.39 0 0 1-.616 4.7z" class="cls-9" data-name="Path 3130" transform="translate(-338.645 -1226.051)"/>
                </g>
            </g>
            <path id="Path_3131" d="M1193.773 1206.629c-1.1-.714-2.006-.223-2.006 1.091v21.5c0 1.314.9 1.8 2.006 1.091l16.3-10.545a1.431 1.431 0 0 0 0-2.6z" class="cls-10" data-name="Path 3131" transform="translate(-994.457 -1004.897)"/>
            <g id="Group_1183" data-name="Group 1183" transform="translate(132.951)">
                <path id="Path_3132" d="M944.59 300.643l-6.183 23.076a9.583 9.583 0 0 1-11.7 6.757l-23.076-6.183a9.584 9.584 0 0 1-6.758-11.7l6.184-23.076a9.583 9.583 0 0 1 11.7-6.757l23.076 6.183a9.583 9.583 0 0 1 6.757 11.7z" class="cls-3" data-name="Path 3132" transform="translate(-896.544 -282.431)"/>
                <path id="Path_3133" d="M1118.9 385.483l-3.71 13.846c-1.361 5.077-5.381 6.052-8.921 2.185l-8.16-8.865a5.957 5.957 0 0 1-.687-.852l2.325-8.677a5.987 5.987 0 0 1 1.021-.394l11.5-3.6c4.999-1.574 7.994 1.28 6.632 6.357z" class="cls-18" data-name="Path 3133" transform="translate(-1053.631 -357.71)"/>
            </g>
            <path id="Path_3134" d="M424.137 830.141c.581-1.178 1.533-1.178 2.114 0l2.382 4.825a5.1 5.1 0 0 0 3.42 2.486l5.326.773c1.3.189 1.593 1.094.653 2.011l-3.854 3.756a5.108 5.108 0 0 0-1.307 4.022l.91 5.3c.222 1.295-.548 1.854-1.711 1.243l-4.762-2.5a5.109 5.109 0 0 0-4.23 0l-4.762 2.5c-1.163.611-1.933.052-1.711-1.243l.91-5.3a5.109 5.109 0 0 0-1.306-4.022l-3.854-3.756c-.94-.917-.646-1.822.653-2.011l5.326-.773a5.1 5.1 0 0 0 3.42-2.486z" class="cls-3" data-name="Path 3134" transform="translate(-384.527 -710.049)"/>
            <path id="Path_3135" d="M2196.135 1465.7c.581-1.178 1.532-1.178 2.113 0l2.382 4.824a5.1 5.1 0 0 0 3.42 2.486l5.326.773c1.3.189 1.594 1.094.653 2.011l-3.854 3.756a5.106 5.106 0 0 0-1.307 4.022l.91 5.3c.221 1.295-.548 1.854-1.711 1.242l-4.762-2.5a5.109 5.109 0 0 0-4.23 0l-4.762 2.5c-1.163.611-1.933.052-1.712-1.242l.91-5.3a5.107 5.107 0 0 0-1.307-4.022l-3.854-3.756c-.94-.917-.646-1.822.654-2.011l5.326-.773a5.1 5.1 0 0 0 3.42-2.486z" class="cls-18" data-name="Path 3135" transform="translate(-1770.228 -1207.057)"/>
            <path id="Path_3136" d="M1394.407 524.454l-11.007 10.971-11.01-10.971c-3.712-3.7-4.429-9.388-1.575-12.637s7.51-3.581 10.364-.737l2.221 1.738 2.221-1.738c2.853-2.844 7.51-2.511 10.363.737s2.135 8.937-1.577 12.637z" class="cls-11" data-name="Path 3136" transform="translate(-1133.103 -459.722)"/>
            <g id="Group_1184" data-name="Group 1184" transform="translate(304.382 22.641)">
                <path id="Path_3137" d="M1685.313 401.764a2.389 2.389 0 0 1-1.689-4.078 6.438 6.438 0 0 1 4.36-1.906c.788-.078 1.026-.1 1.455-.53s.454-.669.533-1.459a6.537 6.537 0 0 1 6.271-6.271c.791-.079 1.029-.1 1.46-.533a2.389 2.389 0 0 1 3.379 3.378 6.45 6.45 0 0 1-4.361 1.91c-.791.079-1.029.1-1.46.533s-.453.669-.533 1.459a6.53 6.53 0 0 1-6.269 6.268c-.789.078-1.026.1-1.455.53a2.379 2.379 0 0 1-1.691.699z" class="cls-18" data-name="Path 3137" transform="translate(-1682.924 -386.287)"/>
            </g>
            <g id="Group_1185" data-name="Group 1185" transform="translate(437.12 166.416)">
                <path id="Path_3138" d="M2294.2 1061.281a2.389 2.389 0 0 1-1.69-4.078 6.439 6.439 0 0 1 4.36-1.906c.789-.078 1.026-.1 1.455-.53s.454-.669.533-1.46a6.537 6.537 0 0 1 6.271-6.27c.791-.08 1.029-.1 1.46-.533a2.389 2.389 0 0 1 3.378 3.378 6.448 6.448 0 0 1-4.361 1.91c-.791.079-1.03.1-1.46.533s-.453.669-.533 1.46a6.532 6.532 0 0 1-6.269 6.267c-.789.078-1.026.1-1.455.529a2.379 2.379 0 0 1-1.689.7z" class="cls-3" data-name="Path 3138" transform="translate(-2291.812 -1045.803)"/>
            </g>
            <g id="Group_1186" data-name="Group 1186" transform="translate(74.478 58.835)">
                <path id="Path_3139" d="M641.409 571.172a2.383 2.383 0 0 1-1.689-.7 6.444 6.444 0 0 1-1.907-4.36c-.078-.788-.1-1.026-.53-1.454s-.669-.454-1.46-.533a6.537 6.537 0 0 1-6.27-6.271c-.079-.791-.1-1.029-.533-1.46a2.389 2.389 0 0 1 3.378-3.378 6.449 6.449 0 0 1 1.91 4.361c.079.791.1 1.029.533 1.46s.669.454 1.459.533a6.532 6.532 0 0 1 6.267 6.269c.079.789.1 1.027.53 1.454a2.389 2.389 0 0 1-1.689 4.079z" class="cls-11" data-name="Path 3139" transform="translate(-628.32 -552.316)"/>
            </g>
        </g>
        <g id="Group_810" data-name="Group 810" transform="translate(1108.868 492.711)">
            <circle id="Ellipse_83" cx="17.5" cy="17.5" r="17.5" class="cls-19" data-name="Ellipse 83" transform="translate(.132 .29)"/>
            <path id="Path_2682" d="M150.253 28.442a12.107 12.107 0 0 1-23.718 0z" class="cls-20" data-name="Path 2682" transform="translate(-120.556 -8.164)"/>
            <path id="Path_2683" fill="#f7504c" d="M147.218 33.043a12.1 12.1 0 0 1-18.668 0 23.362 23.362 0 0 1 18.668 0z" data-name="Path 2683" transform="translate(-120.047 -7.493)"/>
            <path id="Path_2684" d="M127.311 27.747a.731.731 0 0 1-.366-1.364l4.219-2.432-4.214-2.442a.731.731 0 0 1 .733-1.264l5.306 3.075a.731.731 0 0 1 0 1.265l-5.312 3.065a.727.727 0 0 1-.366.097z" class="cls-20" data-name="Path 2684" transform="translate(-120.545 -10.262)"/>
            <path id="Path_2685" d="M145.966 27.747a.727.727 0 0 1-.365-.1l-5.314-3.065a.732.732 0 0 1 0-1.265l5.307-3.075a.731.731 0 0 1 .733 1.264l-4.214 2.442 4.219 2.432a.731.731 0 0 1-.366 1.364z" class="cls-20" data-name="Path 2685" transform="translate(-117.17 -10.262)"/>
        </g>
        <g id="Group_805" data-name="Group 805" transform="translate(1471.249 199)">
            <ellipse id="Ellipse_80" cx="18" cy="18.5" fill="#239cf5" data-name="Ellipse 80" rx="18" ry="18.5" transform="translate(-.249)"/>
            <path id="HAND" fill="#fff" d="M22.759 26.269a5.992 5.992 0 0 0-.415 2.252v8.649a.773.773 0 0 0 .237.631.075.075 0 0 1-.05.131h-6.178a.628.628 0 0 1-.6-.652l.79-10.467a.629.629 0 0 1 .6-.648h5.548a.074.074 0 0 1 .068.104zm13.032 4.775a1.5 1.5 0 0 0 .4-2.819.073.073 0 0 1 .017-.139 1.48 1.48 0 0 0 1.221-1.434 1.534 1.534 0 0 0-1.541-1.506H30.25a.087.087 0 0 1-.078-.127c.114-.233.987-2.4 1.072-2.641a5.532 5.532 0 0 0-.127-4.053 1.289 1.289 0 0 0-2.547.242c-.014 1.16.152 2.117-.531 2.845a26.248 26.248 0 0 0-2.7 2.969 7.149 7.149 0 0 0-1.424 4.181v7.585c0 .763.57.761.573.763h10.045a1.334 1.334 0 0 0 1.185-.553 1.515 1.515 0 0 0-.469-2.2.075.075 0 0 1 .032-.139 1.493 1.493 0 0 0 .484-2.827.074.074 0 0 1 .026-.146z" transform="translate(-8.544 -11.6)"/>
        </g>
        <g id="Group_812" data-name="Group 812" transform="translate(1544.884 519.186)">
            <circle id="Ellipse_84" cx="18" cy="18" r="18" class="cls-19" data-name="Ellipse 84" transform="translate(.116 -.186)"/>
            <g id="Group_811" data-name="Group 811" transform="translate(1.778 9.47)">
                <circle id="Ellipse_85" cx="4.563" cy="4.563" r="4.563" class="cls-24" data-name="Ellipse 85" transform="translate(24.321 4.728)"/>
                <circle id="Ellipse_86" cx="4.563" cy="4.563" r="4.563" class="cls-24" data-name="Ellipse 86" transform="translate(0 4.728)"/>
                <path id="Path_2686" d="M98.122 34.707a10.294 10.294 0 0 1-6.67-5.6.76.76 0 0 1 1.379-.639 8.735 8.735 0 0 0 15.853 0 .761.761 0 0 1 1.381.639 10.254 10.254 0 0 1-9.307 5.948 10.151 10.151 0 0 1-2.636-.348z" class="cls-20" data-name="Path 2686" transform="translate(-84.035 -17.917)"/>
                <path id="Path_2687" d="M88.991 25.694a.761.761 0 0 1-.563-.735 4.687 4.687 0 0 1 9.374 0 .761.761 0 0 1-1.521 0 3.166 3.166 0 0 0-6.332 0 .764.764 0 0 1-.957.735z" class="cls-20" data-name="Path 2687" transform="translate(-84.932 -20.272)"/>
                <path id="Path_2688" d="M102.094 25.694a.761.761 0 0 1-.563-.735 4.687 4.687 0 0 1 9.374 0 .761.761 0 0 1-1.521 0 3.166 3.166 0 0 0-6.332 0 .764.764 0 0 1-.957.735z" class="cls-20" data-name="Path 2688" transform="translate(-80.953 -20.272)"/>
            </g>
        </g>
        <g id="Group_832" data-name="Group 832" transform="translate(1555.639 290.836)">
            <ellipse id="Ellipse_81" cx="16.5" cy="17.5" class="cls-19" data-name="Ellipse 81" rx="16.5" ry="17.5" transform="translate(.361 .164)"/>
            <ellipse id="Ellipse_82" cx="4.952" cy="6.302" class="cls-20" data-name="Ellipse 82" rx="4.952" ry="6.302" transform="translate(11.655 17.095)"/>
            <g id="Group_808" data-name="Group 808" transform="translate(5.625 4.349)">
                <g id="Group_806" data-name="Group 806">
                    <path id="Path_2678" d="M20.618 61.472c-.487 1.816-2.038 2.979-3.465 2.6s-2.189-2.164-1.7-3.98 2.038-2.978 3.465-2.6 2.182 2.164 1.7 3.98z" class="cls-20" data-name="Path 2678" transform="translate(-14.76 -51.874)"/>
                    <path id="Path_2679" d="M15.552 55.563a.7.7 0 0 1-.483-1.209 5.51 5.51 0 0 1 2.894-1.5 4.382 4.382 0 0 1 2.888.514.7.7 0 0 1-.691 1.217 3.45 3.45 0 0 0-4.127.783.7.7 0 0 1-.481.195z" class="cls-20" data-name="Path 2679" transform="translate(-14.851 -52.799)"/>
                </g>
                <g id="Group_807" data-name="Group 807" transform="translate(15.609)">
                    <path id="Path_2680" d="M28.293 61.472c.487 1.816 2.038 2.979 3.465 2.6s2.189-2.164 1.7-3.98-2.034-2.982-3.458-2.6-2.193 2.164-1.707 3.98z" class="cls-20" data-name="Path 2680" transform="translate(-27.796 -51.874)"/>
                    <path id="Path_2681" d="M33.508 55.563a.7.7 0 0 1-.481-.192 3.45 3.45 0 0 0-4.127-.783.7.7 0 0 1-.691-1.217 4.382 4.382 0 0 1 2.888-.514 5.514 5.514 0 0 1 2.894 1.5.7.7 0 0 1-.483 1.209z" class="cls-20" data-name="Path 2681" transform="translate(-27.855 -52.799)"/>
                </g>
            </g>
        </g>
        <g id="Group_824" data-name="Group 824" transform="translate(1104.628 235.98)">
            <circle id="Ellipse_89" cx="17.516" cy="17.516" r="17.516" class="cls-25" data-name="Ellipse 89"/>
            <path id="Path_2711" d="M-487.123-27.013a5.691 5.691 0 0 0-5.353-5.892 5.1 5.1 0 0 0-4.9 3.61 5.1 5.1 0 0 0-4.9-3.61 5.691 5.691 0 0 0-5.352 5.892c0 5.207 7.987 11.167 9.957 11.791a.874.874 0 0 0 .115.033.778.778 0 0 0 .163.023h.027a.762.762 0 0 0 .162-.023.887.887 0 0 0 .116-.033c1.978-.624 9.965-6.584 9.965-11.791z" class="cls-26" data-name="Path 2711" transform="translate(514.888 42.075)"/>
        </g>
        <g id="Group_1240" data-name="Group 1240" transform="translate(1215.567 502.761)">
            <circle id="Ellipse_89-2" cx="17.516" cy="17.516" r="17.516" class="cls-25" data-name="Ellipse 89"/>
            <path id="Path_2711-2" d="M-487.123-27.013a5.691 5.691 0 0 0-5.353-5.892 5.1 5.1 0 0 0-4.9 3.61 5.1 5.1 0 0 0-4.9-3.61 5.691 5.691 0 0 0-5.352 5.892c0 5.207 7.987 11.167 9.957 11.791a.874.874 0 0 0 .115.033.778.778 0 0 0 .163.023h.027a.762.762 0 0 0 .162-.023.887.887 0 0 0 .116-.033c1.978-.624 9.965-6.584 9.965-11.791z" class="cls-26" data-name="Path 2711" transform="translate(514.888 42.075)"/>
        </g>
    </g>
</svg>
