<svg xmlns="http://www.w3.org/2000/svg" id="Layer_1" width="30.915" height="30.934" viewBox="0 0 30.915 30.934">
    <defs>
        <clipPath id="clip-path">
            <path id="Path_2" d="M1497.993 1134.8l-9.093 9.093 6.383 6.383 9.092-9.091v-12.765z" class="cls-1" transform="translate(-1488.9 -1128.42)"/>
        </clipPath>
        <clipPath id="clip-path-2">
            <path id="Path_3" d="M631.779 1499.265l-9.074-9.074-6.365 6.365v.038l9.055 9.055h12.767z" class="cls-2" transform="translate(-616.34 -1490.19)"/>
        </clipPath>
        <clipPath id="clip-path-3">
            <path id="Path_5" d="M1142.987 616.6h-12.767l6.365 6.365 9.074 9.074 6.383-6.383z" class="cls-1" transform="translate(-1130.22 -616.6)"/>
        </clipPath>
        <clipPath id="clip-path-4">
            <path id="Path_6" d="M625.432 616.6h-.038l-9.055 9.055v12.767l6.365-6.365 9.093-9.093z" class="cls-1" transform="translate(-616.34 -616.6)"/>
        </clipPath>
        <style>
            .cls-1{fill:none}.cls-2{fill:#fff}
        </style>
    </defs>
    <g id="Group_1" clip-path="url(#clip-path)" transform="translate(15.439 9.075)">
        <path id="Rectangle_2" d="M0 0H26.468V26.324H0z" class="cls-2" transform="rotate(-45.91 7.85 18.534)"/>
    </g>
    <g id="Group_2" clip-path="url(#clip-path-2)" transform="translate(0 15.476)">
        <path id="Rectangle_3" d="M0 0H26.425V26.29H0z" class="cls-2" transform="rotate(-44.11 5.388 13.282)"/>
    </g>
    <path id="Path_4" d="M1128.1 615.53l-.019.019h.038z" class="cls-2" transform="translate(-1119.025 -615.53)"/>
    <g id="Group_3" clip-path="url(#clip-path-3)" transform="translate(9.093 .019)">
        <path id="Rectangle_4" d="M0 0H26.319V26.375H0z" class="cls-2" transform="rotate(-45.35 5.492 13.145)"/>
    </g>
    <g id="Group_4" clip-path="url(#clip-path-4)" transform="translate(0 .019)">
        <path id="Rectangle_5" d="M0 0H26.428V26.287H0z" class="cls-2" transform="rotate(-45.9 7.835 18.507)"/>
    </g>
</svg>
