
<svg xmlns="http://www.w3.org/2000/svg" xmlns:xlink="http://www.w3.org/1999/xlink" width="669.314" height="507.453" viewBox="0 0 669.314 507.453">
  <defs>
    <style>
      .cls-1 {
        fill: url(#linear-gradient);
      }

      .cls-2 {
        fill: url(#linear-gradient-2);
      }

      .cls-3 {
        fill: url(#linear-gradient-3);
      }

      .cls-4 {
        fill: url(#linear-gradient-4);
      }

      .cls-5 {
        fill: #fff;
      }

      .cls-6 {
        fill: #ddd;
      }

      .cls-7 {
        fill: #d1d1d1;
      }

      .cls-8 {
        fill: url(#linear-gradient-5);
      }

      .cls-9 {
        fill: url(#linear-gradient-6);
      }

      .cls-10 {
        fill: url(#linear-gradient-7);
      }

      .cls-11 {
        fill: url(#linear-gradient-8);
      }

      .cls-12 {
        fill: url(#linear-gradient-9);
      }

      .cls-13 {
        fill: url(#linear-gradient-10);
      }

      .cls-14 {
        fill: url(#linear-gradient-11);
      }

      .cls-15 {
        fill: url(#linear-gradient-12);
      }

      .cls-16 {
        fill: url(#linear-gradient-13);
      }

      .cls-17 {
        fill: url(#linear-gradient-14);
      }

      .cls-18 {
        fill: url(#linear-gradient-15);
      }

      .cls-19 {
        fill: url(#linear-gradient-16);
      }

      .cls-20 {
        fill: url(#linear-gradient-17);
      }

      .cls-21 {
        fill: url(#linear-gradient-19);
      }

      .cls-22 {
        fill: url(#linear-gradient-20);
      }

      .cls-23 {
        fill: url(#linear-gradient-21);
      }

      .cls-24 {
        fill: url(#linear-gradient-22);
      }

      .cls-25 {
        fill: url(#linear-gradient-23);
      }

      .cls-26 {
        fill: url(#linear-gradient-24);
      }

      .cls-27 {
        fill: url(#linear-gradient-25);
      }

      .cls-28 {
        fill: url(#linear-gradient-26);
      }

      .cls-29 {
        fill: url(#linear-gradient-27);
      }

      .cls-30 {
        fill: url(#linear-gradient-28);
      }

      .cls-31 {
        fill: url(#linear-gradient-29);
      }

      .cls-32 {
        fill: url(#linear-gradient-30);
      }

      .cls-33 {
        fill: url(#linear-gradient-31);
      }

      .cls-34 {
        fill: url(#linear-gradient-32);
      }

      .cls-35 {
        fill: url(#linear-gradient-33);
      }

      .cls-36 {
        fill: url(#linear-gradient-34);
      }

      .cls-37 {
        fill: url(#linear-gradient-35);
      }

      .cls-38 {
        fill: url(#linear-gradient-36);
      }

      .cls-39 {
        fill: url(#linear-gradient-37);
      }

      .cls-40 {
        fill: url(#linear-gradient-38);
      }

      .cls-41 {
        fill: url(#linear-gradient-39);
      }

      .cls-42 {
        fill: url(#linear-gradient-40);
      }

      .cls-43 {
        fill: url(#linear-gradient-41);
      }

      .cls-44 {
        fill: #e65d78;
      }

      .cls-45 {
        fill: #d65770;
      }

      .cls-46 {
        fill: #bf4e64;
      }

      .cls-47 {
        fill: #ebccd0;
      }

      .cls-48 {
        fill: #ffe39f;
      }

      .cls-49 {
        fill: #ebd192;
      }

      .cls-50 {
        fill: #7bacfb;
      }

      .cls-51 {
        fill: #73a1eb;
      }

      .cls-52 {
        filter: url(#Ellipse_260);
      }

      .cls-53 {
        filter: url(#Ellipse_259);
      }

      .cls-54 {
        filter: url(#Ellipse_258);
      }

      .cls-55 {
        filter: url(#Path_5588);
      }
    </style>
    <linearGradient id="linear-gradient" x1="0.055" y1="0.253" x2="0.93" y2="0.896" gradientUnits="objectBoundingBox">
      <stop offset="0" stop-color="#909adb"/>
      <stop offset="1" stop-color="#6ab1d1"/>
    </linearGradient>
    <filter id="Path_5588" x="0" y="28.305" width="669.314" height="455.032" filterUnits="userSpaceOnUse">
      <feOffset dx="7" dy="5" input="SourceAlpha"/>
      <feGaussianBlur stdDeviation="4" result="blur"/>
      <feFlood flood-color="#a0b7cc" flood-opacity="0.502"/>
      <feComposite operator="in" in2="blur"/>
      <feComposite in="SourceGraphic"/>
    </filter>
    <linearGradient id="linear-gradient-2" x1="1.156" y1="0.975" x2="-0.156" y2="0.025" gradientUnits="objectBoundingBox">
      <stop offset="0" stop-color="#909adb"/>
      <stop offset="1" stop-color="#6ab1d1"/>
      <stop offset="1"/>
    </linearGradient>
    <filter id="Ellipse_258" x="388.526" y="0" width="135.984" height="135.984" filterUnits="userSpaceOnUse">
      <feOffset dx="7" dy="5" input="SourceAlpha"/>
      <feGaussianBlur stdDeviation="4" result="blur-2"/>
      <feFlood flood-color="#a0b7cc" flood-opacity="0.502"/>
      <feComposite operator="in" in2="blur-2"/>
      <feComposite in="SourceGraphic"/>
    </filter>
    <linearGradient id="linear-gradient-3" x1="-0.464" y1="-0.033" x2="1.306" y2="1.129" xlink:href="#linear-gradient"/>
    <filter id="Ellipse_259" x="291.613" y="426.562" width="80.891" height="80.891" filterUnits="userSpaceOnUse">
      <feOffset dx="7" dy="5" input="SourceAlpha"/>
      <feGaussianBlur stdDeviation="4" result="blur-3"/>
      <feFlood flood-color="#a0b7cc" flood-opacity="0.502"/>
      <feComposite operator="in" in2="blur-3"/>
      <feComposite in="SourceGraphic"/>
    </filter>
    <linearGradient id="linear-gradient-4" x1="-0.112" y1="-0.139" x2="1.128" y2="1.219" xlink:href="#linear-gradient"/>
    <filter id="Ellipse_260" x="526.336" y="79.141" width="64.383" height="64.383" filterUnits="userSpaceOnUse">
      <feOffset dx="7" dy="5" input="SourceAlpha"/>
      <feGaussianBlur stdDeviation="4" result="blur-4"/>
      <feFlood flood-color="#a0b7cc" flood-opacity="0.502"/>
      <feComposite operator="in" in2="blur-4"/>
      <feComposite in="SourceGraphic"/>
    </filter>
    <linearGradient id="linear-gradient-5" x1="-7.579" y1="-7.986" x2="3.008" y2="3.135" gradientUnits="objectBoundingBox">
      <stop offset="0" stop-color="#6a71d1" stop-opacity="0"/>
      <stop offset="1" stop-color="#fff"/>
    </linearGradient>
    <linearGradient id="linear-gradient-6" x1="-5.122" y1="-5.405" x2="2.234" y2="2.322" xlink:href="#linear-gradient-5"/>
    <linearGradient id="linear-gradient-7" x1="-11.042" y1="-11.623" x2="4.186" y2="4.372" xlink:href="#linear-gradient-5"/>
    <linearGradient id="linear-gradient-8" x1="-10.542" y1="-11.098" x2="11.601" y2="12.16" xlink:href="#linear-gradient-5"/>
    <linearGradient id="linear-gradient-9" x1="-19.806" y1="-20.828" x2="2.338" y2="2.43" xlink:href="#linear-gradient-5"/>
    <linearGradient id="linear-gradient-10" x1="-6.242" y1="-6.58" x2="15.907" y2="16.678" xlink:href="#linear-gradient-5"/>
    <linearGradient id="linear-gradient-11" x1="-10.275" y1="-10.817" x2="11.868" y2="12.44" xlink:href="#linear-gradient-5"/>
    <linearGradient id="linear-gradient-12" x1="-9.903" y1="-10.427" x2="12.241" y2="12.832" xlink:href="#linear-gradient-5"/>
    <linearGradient id="linear-gradient-13" x1="-21.641" y1="-22.756" x2="0.502" y2="0.503" xlink:href="#linear-gradient-5"/>
    <linearGradient id="linear-gradient-14" x1="-21.641" y1="-22.755" x2="0.502" y2="0.503" xlink:href="#linear-gradient-5"/>
    <linearGradient id="linear-gradient-15" x1="-21.642" y1="-22.759" x2="0.502" y2="0.503" xlink:href="#linear-gradient-5"/>
    <linearGradient id="linear-gradient-16" x1="-21.641" y1="-22.755" x2="0.502" y2="0.502" xlink:href="#linear-gradient-5"/>
    <linearGradient id="linear-gradient-17" x1="-3.445" y1="-5.956" x2="1.337" y2="1.869" xlink:href="#linear-gradient-5"/>
    <linearGradient id="linear-gradient-19" x1="-3.445" y1="-5.956" x2="1.337" y2="1.869" xlink:href="#linear-gradient-5"/>
    <linearGradient id="linear-gradient-20" x1="-3.445" y1="-5.956" x2="1.337" y2="1.869" xlink:href="#linear-gradient-5"/>
    <linearGradient id="linear-gradient-21" x1="-4.784" y1="-8.147" x2="2.095" y2="3.11" xlink:href="#linear-gradient-5"/>
    <linearGradient id="linear-gradient-22" x1="-0.683" y1="-1.436" x2="4.098" y2="6.389" xlink:href="#linear-gradient-5"/>
    <linearGradient id="linear-gradient-23" x1="-4.564" y1="-7.787" x2="5.438" y2="8.581" xlink:href="#linear-gradient-5"/>
    <linearGradient id="linear-gradient-24" x1="-5.848" y1="-9.891" x2="4.152" y2="6.477" xlink:href="#linear-gradient-5"/>
    <linearGradient id="linear-gradient-25" x1="-4.45" y1="-7.6" x2="5.553" y2="8.768" xlink:href="#linear-gradient-5"/>
    <linearGradient id="linear-gradient-26" x1="-10.905" y1="-18.162" x2="-0.902" y2="-1.794" xlink:href="#linear-gradient-5"/>
    <linearGradient id="linear-gradient-27" x1="-10.904" y1="-18.162" x2="-0.902" y2="-1.794" xlink:href="#linear-gradient-5"/>
    <linearGradient id="linear-gradient-28" x1="-10.905" y1="-18.16" x2="-0.902" y2="-1.794" xlink:href="#linear-gradient-5"/>
    <linearGradient id="linear-gradient-29" x1="-10.905" y1="-18.162" x2="-0.902" y2="-1.794" xlink:href="#linear-gradient-5"/>
    <linearGradient id="linear-gradient-30" x1="-3.524" y1="-3.568" x2="3.986" y2="4.025" xlink:href="#linear-gradient-5"/>
    <linearGradient id="linear-gradient-31" x1="-5.137" y1="-5.201" x2="5.665" y2="5.723" xlink:href="#linear-gradient-5"/>
    <linearGradient id="linear-gradient-32" x1="-6.956" y1="-7.038" x2="0.554" y2="0.555" xlink:href="#linear-gradient-5"/>
    <linearGradient id="linear-gradient-33" x1="-6.956" y1="-7.038" x2="0.554" y2="0.555" xlink:href="#linear-gradient-5"/>
    <linearGradient id="linear-gradient-34" x1="-6.956" y1="-7.039" x2="0.554" y2="0.555" xlink:href="#linear-gradient-5"/>
    <linearGradient id="linear-gradient-35" x1="-6.956" y1="-7.039" x2="0.554" y2="0.555" xlink:href="#linear-gradient-5"/>
    <linearGradient id="linear-gradient-36" x1="-6.956" y1="-7.039" x2="0.554" y2="0.555" xlink:href="#linear-gradient-5"/>
    <linearGradient id="linear-gradient-37" x1="-11.66" y1="-11.796" x2="4.047" y2="4.087" xlink:href="#linear-gradient-5"/>
    <linearGradient id="linear-gradient-38" x1="-10.602" y1="-10.726" x2="5.11" y2="5.161" xlink:href="#linear-gradient-5"/>
    <linearGradient id="linear-gradient-39" x1="-10.975" y1="-11.103" x2="4.732" y2="4.779" xlink:href="#linear-gradient-5"/>
    <linearGradient id="linear-gradient-40" x1="-2.239" y1="-2.27" x2="13.468" y2="13.613" xlink:href="#linear-gradient-5"/>
    <linearGradient id="linear-gradient-41" x1="0" y1="0.5" x2="1" y2="0.5" xlink:href="#linear-gradient-5"/>
  </defs>
  <g id="Group_2687" data-name="Group 2687" transform="translate(5 7)">
    <g class="cls-55" transform="matrix(1, 0, 0, 1, -5, -7)">
      <path id="Path_5588-2" data-name="Path 5588" class="cls-1" d="M419.294,144.718C378.569,124.355,348.4,38.676,227.529,38.676,108.884,38.676,12.7,129.3,12.7,241.094S98.571,443.277,217.217,443.277c73.223,0,85.96-19.987,130.959-19.987,50.488,0,64.038,46.417,154.991,46.417,88.69,0,157.148-74.3,154.791-165.881C653.171,117.851,457.883,164.011,419.294,144.718Z" transform="translate(-7.7 -3.37)"/>
    </g>
    <g class="cls-54" transform="matrix(1, 0, 0, 1, -5, -7)">
      <circle id="Ellipse_258-2" data-name="Ellipse 258" class="cls-2" cx="48.868" cy="48.868" r="48.868" transform="translate(393.53 103.5) rotate(-80.89)"/>
    </g>
    <g class="cls-53" transform="matrix(1, 0, 0, 1, -5, -7)">
      <circle id="Ellipse_259-2" data-name="Ellipse 259" class="cls-3" cx="20.191" cy="20.191" r="20.191" transform="matrix(0.64, -0.77, 0.77, 0.64, 296.61, 464.51)"/>
    </g>
    <g class="cls-52" transform="matrix(1, 0, 0, 1, -5, -7)">
      <circle id="Ellipse_260-2" data-name="Ellipse 260" class="cls-4" cx="20.191" cy="20.191" r="20.191" transform="translate(531.34 86.14)"/>
    </g>
    <g id="Group_2637" data-name="Group 2637" transform="translate(81.2 189.995)">
      <g id="Group_2625" data-name="Group 2625">
        <path id="Path_5589" data-name="Path 5589" class="cls-5" d="M161.348,309.176c0,6.456-5.343,11.353-12.022,11.353-6.9,0-12.022-4.9-12.022-11.353V286.689H84.985a12.257,12.257,0,0,1-12.467-12.245,19.708,19.708,0,0,1,2-6.9l42.745-102.857a11.723,11.723,0,0,1,10.686-6.9c5.788,0,12.022,5.343,12.022,11.578a9.417,9.417,0,0,1-.668,4.007c-6.456,14.916-31.614,76.14-38.07,91.056H137.3V225.688c0-6.456,5.121-11.354,12.022-11.354,6.456,0,12.022,4.9,12.022,11.354v38.738h6.234a11.41,11.41,0,0,1,11.577,11.132,11.267,11.267,0,0,1-11.577,11.132h-6.234Z" transform="translate(-72.518 -157.784)"/>
      </g>
      <g id="Group_2627" data-name="Group 2627" transform="translate(6.652 109.464)">
        <path id="Path_5590" data-name="Path 5590" class="cls-6" d="M87.576,243.5a5.079,5.079,0,1,1-5.078-5.08A5.079,5.079,0,0,1,87.576,243.5Z" transform="translate(-77.418 -238.42)"/>
        <g id="Group_2626" data-name="Group 2626">
          <path id="Path_5591" data-name="Path 5591" class="cls-7" d="M78.626,243.5a5.077,5.077,0,0,1,4.476-5.04,4.927,4.927,0,0,0-.6-.039,5.079,5.079,0,1,0,0,10.158,4.921,4.921,0,0,0,.6-.039A5.076,5.076,0,0,1,78.626,243.5Z" transform="translate(-77.418 -238.42)"/>
        </g>
      </g>
      <g id="Group_2629" data-name="Group 2629" transform="translate(71.303 92.156)">
        <circle id="Ellipse_261" data-name="Ellipse 261" class="cls-6" cx="6.606" cy="6.606" r="6.606" transform="translate(0)"/>
        <g id="Group_2628" data-name="Group 2628" transform="translate(0 0)">
          <path id="Path_5592" data-name="Path 5592" class="cls-7" d="M126.615,232.277a6.605,6.605,0,0,1,5.821-6.557,6.847,6.847,0,0,0-.786-.05,6.606,6.606,0,1,0,0,13.213,6.844,6.844,0,0,0,.786-.05A6.6,6.6,0,0,1,126.615,232.277Z" transform="translate(-125.043 -225.67)"/>
        </g>
      </g>
      <g id="Group_2630" data-name="Group 2630" transform="translate(45.588 29.633)">
        <path id="Path_5593" data-name="Path 5593" class="cls-6" d="M114.99,179.678a8.392,8.392,0,0,0-1.051,16.479c2.2-5.293,4.22-10.119,5.917-14.155A8.386,8.386,0,0,0,114,179.614,8.317,8.317,0,0,1,114.99,179.678Z" transform="translate(-105.573 -179.613)"/>
        <path id="Path_5594" data-name="Path 5594" class="cls-7" d="M107.916,181.7a8.462,8.462,0,0,1,1.245-1.028A8.462,8.462,0,0,0,107.916,181.7Z" transform="translate(-105.451 -179.234)"/>
        <path id="Path_5595" data-name="Path 5595" class="cls-7" d="M106.848,183.369a8.437,8.437,0,0,1,1.45-1.94A8.437,8.437,0,0,0,106.848,183.369Z" transform="translate(-105.833 -178.964)"/>
        <path id="Path_5596" data-name="Path 5596" class="cls-7" d="M106.378,184.368a8.339,8.339,0,0,1,.638-1.51A8.339,8.339,0,0,0,106.378,184.368Z" transform="translate(-106.001 -178.453)"/>
        <path id="Path_5597" data-name="Path 5597" class="cls-7" d="M113.545,179.614h-.005a8.387,8.387,0,0,0-4.706,1.438,8.387,8.387,0,0,1,4.706-1.438Z" transform="translate(-105.123 -179.613)"/>
        <path id="Path_5598" data-name="Path 5598" class="cls-7" d="M106.132,186.447a8.413,8.413,0,0,0,8.206,7.548h0A8.413,8.413,0,0,1,106.132,186.447Z" transform="translate(-106.089 -177.17)"/>
        <path id="Path_5599" data-name="Path 5599" class="cls-7" d="M114.35,196.438l.117-.281a8.392,8.392,0,0,1,1.051-16.479,8.321,8.321,0,0,0-1-.064h-.005a8.4,8.4,0,0,0-8.417,8.417,8.188,8.188,0,0,0,.043.861A8.413,8.413,0,0,0,114.35,196.438Z" transform="translate(-106.1 -179.613)"/>
      </g>
      <g id="Group_2632" data-name="Group 2632" transform="translate(43.216 121.205)">
        <path id="Path_5600" data-name="Path 5600" class="cls-6" d="M109.931,249.857a2.789,2.789,0,1,1-2.788-2.788A2.789,2.789,0,0,1,109.931,249.857Z" transform="translate(-104.353 -247.069)"/>
        <g id="Group_2631" data-name="Group 2631">
          <path id="Path_5601" data-name="Path 5601" class="cls-7" d="M105.017,249.857a2.787,2.787,0,0,1,2.457-2.767,2.672,2.672,0,0,0-.331-.022,2.788,2.788,0,1,0,0,5.577,2.678,2.678,0,0,0,.331-.022A2.787,2.787,0,0,1,105.017,249.857Z" transform="translate(-104.353 -247.069)"/>
        </g>
      </g>
      <g id="Group_2634" data-name="Group 2634" transform="translate(81.727 144.394)">
        <path id="Path_5602" data-name="Path 5602" class="cls-6" d="M138.3,266.939a2.789,2.789,0,1,1-2.79-2.788A2.79,2.79,0,0,1,138.3,266.939Z" transform="translate(-132.722 -264.151)"/>
        <g id="Group_2633" data-name="Group 2633">
          <path id="Path_5603" data-name="Path 5603" class="cls-7" d="M133.386,266.939a2.788,2.788,0,0,1,2.457-2.767,2.706,2.706,0,0,0-.333-.022,2.789,2.789,0,0,0,0,5.578,2.992,2.992,0,0,0,.333-.022A2.788,2.788,0,0,1,133.386,266.939Z" transform="translate(-132.722 -264.151)"/>
        </g>
      </g>
      <g id="Group_2636" data-name="Group 2636" transform="translate(29.763 53.531)">
        <path id="Path_5604" data-name="Path 5604" class="cls-6" d="M100.02,200.005a2.788,2.788,0,1,1-2.788-2.788A2.788,2.788,0,0,1,100.02,200.005Z" transform="translate(-94.443 -197.217)"/>
        <g id="Group_2635" data-name="Group 2635">
          <path id="Path_5605" data-name="Path 5605" class="cls-7" d="M95.105,200.005a2.788,2.788,0,0,1,2.457-2.767,2.675,2.675,0,0,0-.331-.022,2.788,2.788,0,1,0,0,5.577,2.97,2.97,0,0,0,.331-.02A2.789,2.789,0,0,1,95.105,200.005Z" transform="translate(-94.443 -197.217)"/>
        </g>
      </g>
    </g>
    <g id="Group_2655" data-name="Group 2655" transform="translate(451.799 189.995)">
      <g id="Group_2639" data-name="Group 2639" transform="translate(22.392 66.894)">
        <path id="Path_5606" data-name="Path 5606" class="cls-6" d="M372.173,212.141a5.08,5.08,0,1,1-5.08-5.08A5.08,5.08,0,0,1,372.173,212.141Z" transform="translate(-362.013 -207.061)"/>
        <g id="Group_2638" data-name="Group 2638">
          <path id="Path_5607" data-name="Path 5607" class="cls-7" d="M363.221,212.141a5.078,5.078,0,0,1,4.476-5.04,5.209,5.209,0,0,0-.6-.039,5.079,5.079,0,1,0,0,10.158,5.213,5.213,0,0,0,.6-.038A5.08,5.08,0,0,1,363.221,212.141Z" transform="translate(-362.013 -207.061)"/>
        </g>
      </g>
      <g id="Group_2641" data-name="Group 2641" transform="translate(70.075 120.175)">
        <path id="Path_5608" data-name="Path 5608" class="cls-6" d="M410.352,252.917a6.607,6.607,0,1,1-6.607-6.607A6.607,6.607,0,0,1,410.352,252.917Z" transform="translate(-397.138 -246.31)"/>
        <g id="Group_2640" data-name="Group 2640">
          <path id="Path_5609" data-name="Path 5609" class="cls-7" d="M398.71,252.917a6.6,6.6,0,0,1,5.821-6.555,6.532,6.532,0,0,0-.786-.052,6.607,6.607,0,0,0,0,13.214,6.532,6.532,0,0,0,.786-.052A6.6,6.6,0,0,1,398.71,252.917Z" transform="translate(-397.138 -246.31)"/>
        </g>
      </g>
      <path id="Path_5610" data-name="Path 5610" class="cls-5" d="M440.582,264.426h-6.234V225.688c0-6.456-5.566-11.354-12.022-11.354-6.9,0-12.022,4.9-12.022,11.354v38.738H374.237c4.337-10.02,17.107-40.925,26.985-64.664,1.524-3.652,2.932-7.017,4.168-9.956l-.012-.011c2.988-7.155,5.453-13.012,6.93-16.426a9.416,9.416,0,0,0,.668-4.007c0-6.235-6.234-11.578-12.022-11.578a11.723,11.723,0,0,0-10.686,6.9L347.522,267.543a19.709,19.709,0,0,0-2,6.9,12.257,12.257,0,0,0,12.467,12.245H410.3v22.487c0,6.456,5.121,11.353,12.022,11.353,6.679,0,12.022-4.9,12.022-11.353V286.689h6.234a11.267,11.267,0,0,0,11.577-11.132A11.41,11.41,0,0,0,440.582,264.426Z" transform="translate(-345.518 -157.784)"/>
      <g id="Group_2643" data-name="Group 2643" transform="translate(41.988 119.279)">
        <path id="Path_5611" data-name="Path 5611" class="cls-6" d="M382.026,248.438a2.789,2.789,0,1,1-2.788-2.788A2.789,2.789,0,0,1,382.026,248.438Z" transform="translate(-376.448 -245.65)"/>
        <g id="Group_2642" data-name="Group 2642">
          <path id="Path_5612" data-name="Path 5612" class="cls-7" d="M377.112,248.438a2.788,2.788,0,0,1,2.457-2.767,2.974,2.974,0,0,0-.331-.022,2.789,2.789,0,1,0,0,5.578,2.974,2.974,0,0,0,.331-.022A2.789,2.789,0,0,1,377.112,248.438Z" transform="translate(-376.448 -245.65)"/>
        </g>
      </g>
      <g id="Group_2645" data-name="Group 2645" transform="translate(78.655 144.382)">
        <path id="Path_5613" data-name="Path 5613" class="cls-6" d="M409.036,266.93a2.788,2.788,0,1,1-2.788-2.788A2.789,2.789,0,0,1,409.036,266.93Z" transform="translate(-403.459 -264.142)"/>
        <g id="Group_2644" data-name="Group 2644">
          <path id="Path_5614" data-name="Path 5614" class="cls-7" d="M404.121,266.93a2.79,2.79,0,0,1,2.457-2.768,2.946,2.946,0,0,0-.331-.02,2.788,2.788,0,0,0,0,5.577,2.665,2.665,0,0,0,.331-.022A2.788,2.788,0,0,1,404.121,266.93Z" transform="translate(-403.459 -264.142)"/>
        </g>
      </g>
      <g id="Group_2647" data-name="Group 2647" transform="translate(77.468 65.454)">
        <path id="Path_5615" data-name="Path 5615" class="cls-6" d="M409.1,209.258A3.258,3.258,0,1,1,405.842,206,3.258,3.258,0,0,1,409.1,209.258Z" transform="translate(-402.584 -206)"/>
        <g id="Group_2646" data-name="Group 2646">
          <path id="Path_5616" data-name="Path 5616" class="cls-7" d="M403.358,209.258a3.256,3.256,0,0,1,2.871-3.232,3.053,3.053,0,0,0-.387-.026,3.258,3.258,0,1,0,0,6.516,3.326,3.326,0,0,0,.387-.024A3.258,3.258,0,0,1,403.358,209.258Z" transform="translate(-402.584 -206)"/>
        </g>
      </g>
      <g id="Group_2649" data-name="Group 2649" transform="translate(70.075 88.925)">
        <path id="Path_5617" data-name="Path 5617" class="cls-6" d="M405.94,227.691a4.4,4.4,0,1,1-4.4-4.4A4.4,4.4,0,0,1,405.94,227.691Z" transform="translate(-397.138 -223.29)"/>
        <g id="Group_2648" data-name="Group 2648">
          <path id="Path_5618" data-name="Path 5618" class="cls-7" d="M398.185,227.691a4.4,4.4,0,0,1,3.878-4.367,4.449,4.449,0,0,0-.524-.034,4.4,4.4,0,1,0,.524,8.768A4.4,4.4,0,0,1,398.185,227.691Z" transform="translate(-397.138 -223.29)"/>
        </g>
      </g>
      <g id="Group_2650" data-name="Group 2650" transform="translate(4.936 91.799)">
        <path id="Path_5619" data-name="Path 5619" class="cls-6" d="M353.145,237.265a5.987,5.987,0,0,0,.4-11.858l-4.108,9.884A6,6,0,0,0,353.145,237.265Z" transform="translate(-349.052 -225.407)"/>
        <path id="Path_5620" data-name="Path 5620" class="cls-7" d="M353.328,234.434c-.027,0-.053-.014-.081-.016a6.045,6.045,0,0,1-.633.064,5.972,5.972,0,0,1-3.46-1.109h0a5.857,5.857,0,0,0,4.174,1.062Z" transform="translate(-349.154 -222.559)"/>
        <path id="Path_5621" data-name="Path 5621" class="cls-7" d="M349.54,232.688l-.386.929a5.972,5.972,0,0,0,3.46,1.109,6.045,6.045,0,0,0,.633-.064A6,6,0,0,1,349.54,232.688Z" transform="translate(-349.154 -222.804)"/>
      </g>
      <g id="Group_2652" data-name="Group 2652" transform="translate(29.963 47.813)">
        <circle id="Ellipse_262" data-name="Ellipse 262" class="cls-6" cx="6.013" cy="6.013" r="6.013" transform="translate(0 0.001)"/>
        <g id="Group_2651" data-name="Group 2651">
          <path id="Path_5622" data-name="Path 5622" class="cls-7" d="M369.019,199.019a6.013,6.013,0,0,1,5.3-5.968A6.209,6.209,0,0,0,373.6,193a6.013,6.013,0,0,0,0,12.026,5.918,5.918,0,0,0,.715-.048A6.01,6.01,0,0,1,369.019,199.019Z" transform="translate(-367.59 -193.005)"/>
        </g>
      </g>
      <g id="Group_2654" data-name="Group 2654" transform="translate(44.689 18.649)">
        <circle id="Ellipse_263" data-name="Ellipse 263" class="cls-6" cx="3.637" cy="3.637" r="3.637" transform="translate(0 0)"/>
        <g id="Group_2653" data-name="Group 2653" transform="translate(0)">
          <path id="Path_5623" data-name="Path 5623" class="cls-7" d="M379.3,175.159a3.636,3.636,0,0,1,3.2-3.608,3.474,3.474,0,0,0-.432-.028,3.637,3.637,0,0,0,0,7.275,3.76,3.76,0,0,0,.432-.029A3.636,3.636,0,0,1,379.3,175.159Z" transform="translate(-378.438 -171.522)"/>
        </g>
      </g>
    </g>
    <g id="Group_2659" data-name="Group 2659" transform="translate(31.248 64.804)">
      <g id="Group_2656" data-name="Group 2656" transform="translate(204.414 9.987)">
        <path id="Path_5624" data-name="Path 5624" class="cls-8" d="M207.247,149.544c-.386-.083-2.791-.646-3.5-1.8a19.292,19.292,0,0,1-1.291-3.132v-.039l-.007.02,0-.012v.023a19.054,19.054,0,0,1-1.3,3.13c-.711,1.154-3.125,1.716-3.5,1.8h.011c.384.084,2.79.648,3.5,1.8a18.767,18.767,0,0,1,1.292,3.132v.039l.007-.019.005.011v-.023a18.882,18.882,0,0,1,1.292-3.13c.711-1.153,3.126-1.716,3.506-1.8Z" transform="translate(-182.247 -47.302)"/>
        <path id="Path_5625" data-name="Path 5625" class="cls-9" d="M264.207,100.224c-.555-.118-4.017-.929-5.042-2.586a27.67,27.67,0,0,1-1.858-4.507v-.057l-.011.03,0-.018v.033a27.513,27.513,0,0,1-1.864,4.506c-1.025,1.66-4.5,2.469-5.043,2.589h.015c.555.119,4.017.931,5.042,2.587a27.119,27.119,0,0,1,1.861,4.507v.056l.01-.027.007.015v-.033a27.309,27.309,0,0,1,1.86-4.506c1.025-1.659,4.5-2.468,5.046-2.589Z" transform="translate(-163.391 -65.715)"/>
        <path id="Path_5626" data-name="Path 5626" class="cls-10" d="M240.1,116.37c-.269-.057-1.94-.449-2.435-1.249a13.451,13.451,0,0,1-.9-2.177v-.027l0,.014v.008a13.4,13.4,0,0,1-.9,2.176c-.5.8-2.173,1.193-2.437,1.25h.008c.267.058,1.94.449,2.435,1.25a13.1,13.1,0,0,1,.9,2.176v.028l.005-.015,0,.008V119.8a13.3,13.3,0,0,1,.9-2.176c.5-.8,2.175-1.192,2.438-1.25Z" transform="translate(-169.455 -58.621)"/>
        <path id="Path_5627" data-name="Path 5627" class="cls-11" d="M215.637,98.413c-.185-.039-1.334-.31-1.675-.859a9.236,9.236,0,0,1-.618-1.5v-.019l0,.009v.005a9.013,9.013,0,0,1-.619,1.5c-.341.552-1.493.821-1.675.861h.005c.185.039,1.334.31,1.675.859a8.988,8.988,0,0,1,.618,1.5v.019l0-.009,0,.005v-.011a8.993,8.993,0,0,1,.618-1.5c.341-.551,1.495-.82,1.677-.859Z" transform="translate(-177.456 -64.655)"/>
        <path id="Path_5628" data-name="Path 5628" class="cls-12" d="M236,142.6c-.185-.039-1.334-.308-1.675-.858a9.2,9.2,0,0,1-.616-1.5v-.019l0,.01v.005a9.01,9.01,0,0,1-.619,1.5c-.339.553-1.493.821-1.675.861h.005c.185.039,1.334.309,1.675.859a9,9,0,0,1,.618,1.5v.019l0-.01,0,0v-.011a8.983,8.983,0,0,1,.618-1.5c.341-.551,1.495-.82,1.676-.861Z" transform="translate(-170.177 -48.859)"/>
        <path id="Path_5629" data-name="Path 5629" class="cls-13" d="M196.337,98.963c-.185-.039-1.334-.308-1.675-.858a9.235,9.235,0,0,1-.618-1.5v-.019l0,.01V96.6a9.308,9.308,0,0,1-.619,1.5c-.341.552-1.495.821-1.675.861h0c.185.039,1.334.308,1.675.859a8.992,8.992,0,0,1,.618,1.5v.019l0-.009v-.007a9.015,9.015,0,0,1,.619-1.5c.339-.551,1.495-.82,1.675-.861Z" transform="translate(-184.356 -64.458)"/>
        <path id="Path_5630" data-name="Path 5630" class="cls-14" d="M190.893,119.416c-.185-.039-1.334-.308-1.675-.859a9.2,9.2,0,0,1-.616-1.5v-.019l0,.009v.005a9.018,9.018,0,0,1-.619,1.5c-.339.551-1.493.82-1.675.859h.005c.185.041,1.334.31,1.675.859a8.99,8.99,0,0,1,.618,1.5v.019l0-.009,0,.005v-.011a9.042,9.042,0,0,1,.618-1.5c.341-.551,1.495-.82,1.677-.859Z" transform="translate(-186.302 -57.147)"/>
        <path id="Path_5631" data-name="Path 5631" class="cls-15" d="M236,75.294c-.185-.039-1.334-.308-1.675-.858a9.207,9.207,0,0,1-.616-1.5V72.92l0,.01v.005a9.058,9.058,0,0,1-.619,1.5c-.339.553-1.493.821-1.675.861h.005c.185.039,1.334.308,1.675.859a9,9,0,0,1,.618,1.5v.019l0-.009,0,0v-.011a8.983,8.983,0,0,1,.618-1.5c.341-.551,1.495-.82,1.676-.861Z" transform="translate(-170.177 -72.92)"/>
        <path id="Path_5632" data-name="Path 5632" class="cls-16" d="M263.211,129.975c-.185-.039-1.334-.31-1.675-.859a9.239,9.239,0,0,1-.618-1.5V127.6l0,.009v.005a9.005,9.005,0,0,1-.619,1.5c-.341.552-1.493.821-1.675.861h.005c.185.039,1.334.31,1.675.859a8.989,8.989,0,0,1,.618,1.5v.019l0-.009,0,.005v-.011a9.041,9.041,0,0,1,.618-1.5c.341-.551,1.495-.82,1.677-.859Z" transform="translate(-160.448 -53.372)"/>
        <path id="Path_5633" data-name="Path 5633" class="cls-17" d="M297.692,154.266c-.185-.039-1.334-.308-1.675-.859a9.181,9.181,0,0,1-.618-1.5v-.019l0,.011v0a9.139,9.139,0,0,1-.619,1.5c-.341.551-1.495.82-1.675.859h.005c.183.041,1.333.31,1.674.859a9,9,0,0,1,.618,1.5v.019l0-.009,0,.005v-.011a8.99,8.99,0,0,1,.618-1.5c.339-.551,1.495-.821,1.677-.861Z" transform="translate(-148.12 -44.688)"/>
        <path id="Path_5634" data-name="Path 5634" class="cls-18" d="M350.967,156.8c-.246-.053-1.777-.411-2.23-1.144a12.19,12.19,0,0,1-.823-1.994v-.026l-.005.012v.007a12.2,12.2,0,0,1-.825,1.994c-.453.736-1.99,1.093-2.232,1.146h.007c.246.053,1.777.413,2.23,1.146a11.88,11.88,0,0,1,.824,1.994v.024l0-.012,0,.007v-.015a12.094,12.094,0,0,1,.824-1.993c.453-.734,1.991-1.093,2.233-1.146Z" transform="translate(-129.619 -44.062)"/>
        <path id="Path_5635" data-name="Path 5635" class="cls-19" d="M358.192,188.64c-.185-.041-1.334-.31-1.675-.859a9.231,9.231,0,0,1-.618-1.5v-.019l0,.009v.005a9.132,9.132,0,0,1-.619,1.5c-.341.553-1.495.821-1.675.861h.005c.183.039,1.333.31,1.674.859a8.993,8.993,0,0,1,.618,1.5v.019l0-.01,0,0v-.011a8.989,8.989,0,0,1,.618-1.5c.339-.551,1.495-.82,1.677-.859Z" transform="translate(-126.491 -32.399)"/>
      </g>
      <g id="Group_2657" data-name="Group 2657" transform="translate(0)">
        <path id="Path_5636" data-name="Path 5636" class="cls-20" d="M60.4,203.416c-.544-.117-3.949-.914-4.958-2.543a27.327,27.327,0,0,1-1.827-4.432v-.057l-.01.03,0-.018v.033a27.141,27.141,0,0,1-1.834,4.431c-1.007,1.633-4.423,2.429-4.959,2.545h.015c.546.118,3.949.915,4.958,2.544a26.539,26.539,0,0,1,1.83,4.432v.056l.01-.027.007.015v-.033a26.7,26.7,0,0,1,1.83-4.431c1.007-1.632,4.424-2.427,4.962-2.545Z" transform="translate(-31.758 -18.793)"/>
        <path id="Path_5637" data-name="Path 5637" class="cls-20" d="M105.318,87.678c-.544-.117-3.949-.914-4.958-2.543A27.329,27.329,0,0,1,98.533,80.7v-.057l-.009.03,0-.018v.033a27.14,27.14,0,0,1-1.834,4.431c-1.007,1.633-4.423,2.429-4.959,2.545h.015c.546.118,3.949.915,4.958,2.544a26.537,26.537,0,0,1,1.83,4.432V94.7l.009-.027.007.015v-.033a26.691,26.691,0,0,1,1.83-4.43c1.007-1.632,4.424-2.429,4.962-2.547Z" transform="translate(-15.699 -60.171)"/>
        <path id="Path_5638" data-name="Path 5638" class="cls-21" d="M129.689,112.737c-.387-.083-2.806-.649-3.523-1.807a19.43,19.43,0,0,1-1.3-3.149v-.041l-.007.02,0-.012v.023a19.2,19.2,0,0,1-1.3,3.149c-.715,1.161-3.143,1.725-3.524,1.808h.011c.388.084,2.807.652,3.524,1.808a18.79,18.79,0,0,1,1.3,3.151v.039l.007-.02.005.011v-.023a19.138,19.138,0,0,1,1.3-3.148c.715-1.159,3.144-1.725,3.527-1.81Z" transform="translate(-5.581 -50.484)"/>
        <path id="Path_5639" data-name="Path 5639" class="cls-22" d="M163.936,70.56c-.388-.083-2.807-.649-3.524-1.807a19.388,19.388,0,0,1-1.3-3.151v-.039l-.007.02v.011a19.212,19.212,0,0,1-1.3,3.148c-.715,1.162-3.143,1.727-3.524,1.81h.011c.387.084,2.806.65,3.523,1.808a18.931,18.931,0,0,1,1.3,3.151v.039l.007-.02.005.011v-.023a18.99,18.99,0,0,1,1.3-3.148c.715-1.161,3.145-1.725,3.527-1.81Z" transform="translate(6.662 -65.563)"/>
        <path id="Path_5640" data-name="Path 5640" class="cls-23" d="M86.949,179.368c-.38-.081-2.746-.635-3.447-1.769a18.992,18.992,0,0,1-1.271-3.08v-.039l-.007.019,0-.011v.022a18.849,18.849,0,0,1-1.273,3.08c-.7,1.136-3.075,1.689-3.448,1.77h.011c.379.083,2.745.637,3.445,1.769a18.3,18.3,0,0,1,1.272,3.082v.038l.007-.019.005.011v-.023a18.628,18.628,0,0,1,1.272-3.08c.7-1.134,3.076-1.687,3.449-1.769Z" transform="translate(-20.786 -26.624)"/>
        <path id="Path_5641" data-name="Path 5641" class="cls-24" d="M50.373,146.175c-.544-.117-3.949-.914-4.958-2.543a27.327,27.327,0,0,1-1.827-4.432v-.057l-.011.03v.015a27.14,27.14,0,0,1-1.834,4.431c-1.007,1.633-4.423,2.429-4.959,2.545H36.8c.546.118,3.949.915,4.958,2.544a26.656,26.656,0,0,1,1.83,4.432v.056l.009-.027.007.015v-.033a26.643,26.643,0,0,1,1.83-4.43c1.006-1.632,4.424-2.429,4.962-2.547Z" transform="translate(-35.343 -39.258)"/>
        <path id="Path_5642" data-name="Path 5642" class="cls-25" d="M57.455,166.678c-.261-.056-1.887-.437-2.37-1.216a13.177,13.177,0,0,1-.873-2.118v-.029l-.005.015v.007a12.812,12.812,0,0,1-.876,2.118c-.482.782-2.115,1.162-2.372,1.218h.007c.261.057,1.888.437,2.37,1.216a12.7,12.7,0,0,1,.876,2.119v.026l0-.012,0,.007v-.015a12.722,12.722,0,0,1,.874-2.119c.482-.779,2.115-1.161,2.372-1.216Z" transform="translate(-30.275 -30.616)"/>
        <path id="Path_5643" data-name="Path 5643" class="cls-26" d="M42.22,189.751c-.261-.056-1.888-.437-2.37-1.215a13.084,13.084,0,0,1-.874-2.119v-.027l0,.014v.007a12.97,12.97,0,0,1-.877,2.119c-.482.781-2.114,1.161-2.372,1.216h.008c.261.057,1.888.438,2.37,1.216a12.794,12.794,0,0,1,.874,2.119v.027l.005-.014,0,.007v-.015a12.788,12.788,0,0,1,.874-2.118c.482-.781,2.116-1.161,2.373-1.218Z" transform="translate(-35.722 -22.366)"/>
        <path id="Path_5644" data-name="Path 5644" class="cls-27" d="M84.218,149.588c-.261-.057-1.888-.437-2.37-1.216a13.036,13.036,0,0,1-.874-2.119v-.027l0,.014v.008a13.011,13.011,0,0,1-.877,2.118c-.482.781-2.114,1.161-2.37,1.218h.007c.261.056,1.888.437,2.37,1.216a12.6,12.6,0,0,1,.874,2.118v.027l.005-.014,0,.008v-.016a12.786,12.786,0,0,1,.874-2.118c.482-.781,2.116-1.161,2.373-1.216Z" transform="translate(-20.707 -36.726)"/>
        <path id="Path_5645" data-name="Path 5645" class="cls-28" d="M79.015,209.287c-.261-.056-1.888-.437-2.37-1.215a13.085,13.085,0,0,1-.874-2.119v-.027l0,.014v.007a12.968,12.968,0,0,1-.877,2.119c-.482.781-2.114,1.161-2.37,1.216h.007c.261.057,1.888.438,2.37,1.216a12.674,12.674,0,0,1,.874,2.119v.027l.005-.014,0,.007v-.015a12.789,12.789,0,0,1,.874-2.118c.482-.781,2.116-1.161,2.373-1.218Z" transform="translate(-22.567 -15.382)"/>
        <path id="Path_5646" data-name="Path 5646" class="cls-29" d="M222.191,286.183c-.261-.056-1.888-.437-2.37-1.216a13.038,13.038,0,0,1-.874-2.119v-.027l0,.015v.007a13.011,13.011,0,0,1-.877,2.118c-.482.781-2.114,1.162-2.37,1.218h.007c.261.057,1.888.437,2.37,1.216a12.677,12.677,0,0,1,.874,2.119v.026l.005-.012,0,.007v-.015a12.839,12.839,0,0,1,.874-2.119c.482-.779,2.116-1.161,2.373-1.216Z" transform="translate(28.619 12.108)"/>
        <path id="Path_5647" data-name="Path 5647" class="cls-30" d="M137.692,311.733c-.293-.064-2.133-.494-2.677-1.374a14.72,14.72,0,0,1-.987-2.393v-.031l-.005.016v.008a14.624,14.624,0,0,1-.99,2.393c-.544.881-2.388,1.311-2.678,1.374h.008c.295.064,2.133.5,2.677,1.375a14.261,14.261,0,0,1,.988,2.393v.03l.005-.015,0,.008V315.5a14.447,14.447,0,0,1,.987-2.392c.544-.882,2.391-1.311,2.68-1.375Z" transform="translate(-1.891 21.087)"/>
        <path id="Path_5648" data-name="Path 5648" class="cls-31" d="M161.914,322.161c-.272-.058-1.971-.456-2.473-1.269a13.616,13.616,0,0,1-.912-2.211v-.029l-.005.015v.007a13.429,13.429,0,0,1-.915,2.211c-.5.815-2.207,1.212-2.475,1.271h.008c.271.058,1.97.456,2.473,1.269a13.237,13.237,0,0,1,.914,2.213v.027l0-.014,0,.007v-.015a13.37,13.37,0,0,1,.912-2.211c.5-.814,2.209-1.211,2.476-1.271Z" transform="translate(6.968 24.918)"/>
      </g>
      <g id="Group_2658" data-name="Group 2658" transform="translate(342.547 155.344)">
        <path id="Path_5649" data-name="Path 5649" class="cls-32" d="M327.5,290.107c.361.06,2.62.482,3.331,1.52a17.911,17.911,0,0,1,1.333,2.855v.038l.005-.02,0,.011v-.02a17.675,17.675,0,0,1,1.071-2.963c.612-1.1,2.83-1.728,3.179-1.82h-.011c-.361-.061-2.62-.482-3.33-1.52a17.458,17.458,0,0,1-1.334-2.855V285.3l-.005.018-.005-.01v.022a17.651,17.651,0,0,1-1.068,2.963c-.612,1.1-2.832,1.725-3.181,1.819Z" transform="translate(-273.96 -142.351)"/>
        <path id="Path_5650" data-name="Path 5650" class="cls-33" d="M310.06,305.966c.251.042,1.822.335,2.316,1.057a12.573,12.573,0,0,1,.926,1.985v.026l0-.014v-.007a12.277,12.277,0,0,1,.744-2.061c.425-.767,1.967-1.2,2.21-1.265h-.007c-.251-.042-1.822-.335-2.316-1.057a12.112,12.112,0,0,1-.927-1.985v-.024l0,.012,0-.007v.015a12.17,12.17,0,0,1-.743,2.059c-.425.766-1.968,1.2-2.211,1.265Z" transform="translate(-280.194 -136.157)"/>
        <path id="Path_5651" data-name="Path 5651" class="cls-34" d="M335.8,327.384c.361.06,2.62.481,3.331,1.52a17.881,17.881,0,0,1,1.332,2.855l0,.037.005-.019v-.011a17.764,17.764,0,0,1,1.07-2.963c.612-1.1,2.83-1.727,3.179-1.819h-.01c-.361-.061-2.62-.482-3.331-1.522a17.545,17.545,0,0,1-1.333-2.855v-.037l-.007.019,0-.01v.02a17.546,17.546,0,0,1-1.067,2.963c-.612,1.1-2.833,1.727-3.182,1.82Z" transform="translate(-270.994 -129.025)"/>
        <path id="Path_5652" data-name="Path 5652" class="cls-35" d="M424.088,298.03c.361.061,2.62.482,3.33,1.52a18.016,18.016,0,0,1,1.333,2.855v.038l.007-.019v-.011a17.923,17.923,0,0,1,1.071-2.963c.612-1.1,2.83-1.727,3.179-1.82H433c-.362-.061-2.62-.483-3.331-1.522a17.462,17.462,0,0,1-1.334-2.855v-.037l-.005.019-.005-.009v.02a17.494,17.494,0,0,1-1.068,2.963c-.612,1.1-2.832,1.727-3.181,1.82Z" transform="translate(-239.43 -139.518)"/>
        <path id="Path_5653" data-name="Path 5653" class="cls-36" d="M415.31,326.546c.3.05,2.206.4,2.806,1.28a15.172,15.172,0,0,1,1.123,2.4v.033l0-.016,0,.008v-.018a14.956,14.956,0,0,1,.9-2.5c.516-.93,2.384-1.455,2.678-1.534h-.008c-.305-.052-2.207-.406-2.806-1.28a14.722,14.722,0,0,1-1.124-2.406v-.03l0,.015,0-.008v.018a14.781,14.781,0,0,1-.9,2.5c-.516.927-2.386,1.454-2.68,1.533Z" transform="translate(-242.567 -129.052)"/>
        <path id="Path_5654" data-name="Path 5654" class="cls-37" d="M424.6,184.05c.3.052,2.207.406,2.806,1.281a15.112,15.112,0,0,1,1.123,2.4v.031l0-.016,0,.01v-.018a14.989,14.989,0,0,1,.9-2.5c.514-.929,2.384-1.455,2.677-1.533h-.008c-.3-.052-2.207-.406-2.806-1.281a14.7,14.7,0,0,1-1.123-2.4V180l-.005.015,0-.008v.019a14.929,14.929,0,0,1-.9,2.5c-.516.929-2.385,1.454-2.68,1.533Z" transform="translate(-239.244 -179.996)"/>
        <path id="Path_5655" data-name="Path 5655" class="cls-38" d="M461.085,226.948c.409.068,2.957.543,3.759,1.716a20.316,20.316,0,0,1,1.5,3.22l0,.042.005-.022,0,.012v-.023a20.039,20.039,0,0,1,1.207-3.344c.691-1.245,3.194-1.949,3.588-2.054h-.012c-.407-.068-2.955-.544-3.758-1.716a19.717,19.717,0,0,1-1.505-3.221v-.041l-.007.02-.005-.011v.024a19.845,19.845,0,0,1-1.205,3.344c-.69,1.242-3.194,1.947-3.588,2.053Z" transform="translate(-226.203 -165.152)"/>
        <path id="Path_5656" data-name="Path 5656" class="cls-39" d="M329.279,312.9c.172.029,1.252.229,1.592.726a8.7,8.7,0,0,1,.637,1.366v.018l0-.009v-.005a8.606,8.606,0,0,1,.512-1.416c.293-.527,1.353-.827,1.52-.87h-.005c-.172-.03-1.252-.231-1.592-.728a8.478,8.478,0,0,1-.638-1.364V310.6l0,.009,0-.005v.009a8.3,8.3,0,0,1-.51,1.417c-.292.527-1.353.825-1.52.87Z" transform="translate(-273.322 -133.305)"/>
        <path id="Path_5657" data-name="Path 5657" class="cls-40" d="M338.587,297.292c.172.03,1.253.231,1.592.728a8.457,8.457,0,0,1,.637,1.364v.018l0-.008v-.005a8.358,8.358,0,0,1,.512-1.417c.292-.527,1.352-.825,1.519-.869h0c-.174-.03-1.253-.231-1.592-.728a8.374,8.374,0,0,1-.638-1.366v-.016l0,.008v.005a8.455,8.455,0,0,1-.51,1.417c-.293.527-1.355.825-1.52.87Z" transform="translate(-269.994 -138.884)"/>
        <path id="Path_5658" data-name="Path 5658" class="cls-41" d="M312.223,324.919c.172.029,1.252.229,1.592.726a8.7,8.7,0,0,1,.637,1.366v.018l0-.01v-.005a8.606,8.606,0,0,1,.512-1.416c.293-.528,1.353-.827,1.52-.87h-.005c-.172-.03-1.252-.231-1.592-.728a8.338,8.338,0,0,1-.637-1.364v-.018l0,.008,0,0v.009a8.316,8.316,0,0,1-.512,1.417c-.292.527-1.353.825-1.52.87Z" transform="translate(-279.42 -129.007)"/>
        <path id="Path_5659" data-name="Path 5659" class="cls-42" d="M288.064,293.027c.172.029,1.252.229,1.592.726a8.7,8.7,0,0,1,.637,1.364v.019l0-.01v-.005a8.6,8.6,0,0,1,.512-1.417c.293-.527,1.353-.825,1.52-.869h-.005c-.172-.03-1.252-.231-1.592-.728a8.293,8.293,0,0,1-.637-1.366v-.016l0,.008,0,0v.009a8.359,8.359,0,0,1-.512,1.417c-.292.527-1.353.825-1.52.87Z" transform="translate(-288.057 -140.409)"/>
      </g>
      <path id="Path_5660" data-name="Path 5660" class="cls-43" d="M163.462,127.916,119.129,78.78l45.881,47.395s3.06,2.916,1.928,4.045C166.035,131.121,163.462,127.916,163.462,127.916Z" transform="translate(-5.903 -60.838)"/>
      <path id="Path_5661" data-name="Path 5661" class="cls-43" d="M186.736,316.981l-28.9-32.028,29.907,30.893s1.994,1.9,1.256,2.636C188.413,319.07,186.736,316.981,186.736,316.981Z" transform="translate(7.936 12.871)"/>
      <path id="Path_5662" data-name="Path 5662" class="cls-43" d="M402.6,320.486l-40.219-44.577L404,318.9s2.776,2.646,1.748,3.671C404.931,323.392,402.6,320.486,402.6,320.486Z" transform="translate(81.06 9.637)"/>
      <path id="Path_5663" data-name="Path 5663" class="cls-43" d="M462.2,307.484l-23.217-25.732,24.028,24.819s1.6,1.527,1.01,2.119C463.551,309.161,462.2,307.484,462.2,307.484Z" transform="translate(108.448 11.726)"/>
      <path id="Path_5664" data-name="Path 5664" class="cls-43" d="M171.786,191.621l-23.217-25.733L172.6,190.709s1.6,1.527,1.01,2.118C173.133,193.3,171.786,191.621,171.786,191.621Z" transform="translate(4.622 -29.696)"/>
    </g>
    <g id="Group_2816" data-name="Group 2816" transform="translate(204.061 186.642)">
      <circle id="Ellipse_275" data-name="Ellipse 275" class="cls-44" cx="62.95" cy="62.95" r="62.95" transform="translate(33.39 112.05) rotate(-62.872)"/>
      <g id="Group_2725" data-name="Group 2725" transform="translate(103.413 21.77)">
        <g id="Group_2724" data-name="Group 2724">
          <path id="Path_5762" data-name="Path 5762" class="cls-45" d="M245.319,175.735c-2.051.286-4.063.673-6.039,1.146a62.947,62.947,0,0,1,17.252,124.1c2.028-.086,4.07-.261,6.121-.546a62.951,62.951,0,0,0-17.335-124.7Z" transform="translate(-239.28 -175.128)"/>
        </g>
      </g>
      <g id="Group_2727" data-name="Group 2727" transform="translate(131.906 52.659)">
        <path id="Path_5763" data-name="Path 5763" class="cls-45" d="M274.48,204.038a7.14,7.14,0,1,1-8.055-6.089A7.139,7.139,0,0,1,274.48,204.038Z" transform="translate(-260.268 -197.88)"/>
        <g id="Group_2726" data-name="Group 2726" transform="translate(0 0.006)">
          <path id="Path_5764" data-name="Path 5764" class="cls-46" d="M262.019,205.768a7.138,7.138,0,0,1,5.255-7.883,7.14,7.14,0,1,0,1.951,14.035A7.138,7.138,0,0,1,262.019,205.768Z" transform="translate(-260.268 -197.885)"/>
        </g>
      </g>
      <g id="Group_2729" data-name="Group 2729" transform="translate(79.567 52.596)">
        <path id="Path_5765" data-name="Path 5765" class="cls-45" d="M239.957,205.738a9.164,9.164,0,1,1-10.338-7.816A9.164,9.164,0,0,1,239.957,205.738Z" transform="translate(-221.715 -197.834)"/>
        <g id="Group_2728" data-name="Group 2728" transform="translate(0 0.008)">
          <path id="Path_5766" data-name="Path 5766" class="cls-46" d="M223.962,207.958a9.163,9.163,0,0,1,6.746-10.118,9.561,9.561,0,0,0-1.089.08,9.164,9.164,0,1,0,3.594,17.934A9.162,9.162,0,0,1,223.962,207.958Z" transform="translate(-221.715 -197.84)"/>
        </g>
      </g>
      <g id="Group_2731" data-name="Group 2731" transform="translate(114.478 126.466)">
        <path id="Path_5767" data-name="Path 5767" class="cls-45" d="M261.988,258.554a7.313,7.313,0,1,1-8.25-6.237A7.312,7.312,0,0,1,261.988,258.554Z" transform="translate(-247.431 -252.247)"/>
        <g id="Group_2730" data-name="Group 2730" transform="translate(0 0.007)">
          <path id="Path_5768" data-name="Path 5768" class="cls-46" d="M249.223,260.327a7.312,7.312,0,0,1,5.384-8.075,7.311,7.311,0,1,0,1.144,14.551,7.055,7.055,0,0,0,.854-.175A7.311,7.311,0,0,1,249.223,260.327Z" transform="translate(-247.431 -252.252)"/>
        </g>
      </g>
      <g id="Group_2733" data-name="Group 2733" transform="translate(63.787 95.304)">
        <circle id="Ellipse_276" data-name="Ellipse 276" class="cls-45" cx="4.811" cy="4.811" r="4.811" transform="matrix(0.953, -0.304, 0.304, 0.953, 0, 2.926)"/>
        <g id="Group_2732" data-name="Group 2732" transform="translate(1.234 1.239)">
          <path id="Path_5769" data-name="Path 5769" class="cls-46" d="M212.181,235.518a4.81,4.81,0,0,1,3.542-5.312,4.81,4.81,0,1,0,.753,9.574,5.063,5.063,0,0,0,.561-.115A4.81,4.81,0,0,1,212.181,235.518Z" transform="translate(-211.001 -230.206)"/>
        </g>
      </g>
      <g id="Group_2735" data-name="Group 2735" transform="translate(139.031 96.098)">
        <path id="Path_5770" data-name="Path 5770" class="cls-45" d="M273.077,233.154a3.8,3.8,0,1,1-4.285-3.239A3.8,3.8,0,0,1,273.077,233.154Z" transform="translate(-265.517 -229.878)"/>
        <g id="Group_2734" data-name="Group 2734" transform="translate(0 0.003)">
          <path id="Path_5771" data-name="Path 5771" class="cls-46" d="M266.448,234.074a3.8,3.8,0,0,1,2.8-4.194,3.89,3.89,0,0,0-.451.033,3.8,3.8,0,0,0,1.045,7.525,3.954,3.954,0,0,0,.444-.091A3.8,3.8,0,0,1,266.448,234.074Z" transform="translate(-265.517 -229.88)"/>
        </g>
      </g>
      <g id="Group_2737" data-name="Group 2737" transform="translate(112.513 33.516)">
        <path id="Path_5772" data-name="Path 5772" class="cls-45" d="M250.816,185.873a2.427,2.427,0,1,1-2.738-2.07A2.427,2.427,0,0,1,250.816,185.873Z" transform="translate(-245.984 -183.78)"/>
        <g id="Group_2736" data-name="Group 2736" transform="translate(0 0.003)">
          <path id="Path_5773" data-name="Path 5773" class="cls-46" d="M246.579,186.462a2.426,2.426,0,0,1,1.787-2.68,2.3,2.3,0,0,0-.288.02,2.427,2.427,0,0,0,.668,4.809,2.4,2.4,0,0,0,.284-.058A2.427,2.427,0,0,1,246.579,186.462Z" transform="translate(-245.984 -183.782)"/>
        </g>
      </g>
      <g id="Group_2739" data-name="Group 2739" transform="translate(110.483 80.703)">
        <path id="Path_5774" data-name="Path 5774" class="cls-45" d="M252.439,221.982a3.995,3.995,0,1,1-4.507-3.406A4,4,0,0,1,252.439,221.982Z" transform="translate(-244.488 -218.538)"/>
        <g id="Group_2738" data-name="Group 2738" transform="translate(0 0.004)">
          <path id="Path_5775" data-name="Path 5775" class="cls-46" d="M245.467,222.95a3.992,3.992,0,0,1,2.941-4.409,4.037,4.037,0,0,0-.475.034,3.995,3.995,0,0,0,1.1,7.913,4.355,4.355,0,0,0,.466-.1A3.994,3.994,0,0,1,245.467,222.95Z" transform="translate(-244.488 -218.541)"/>
        </g>
      </g>
      <g id="Group_2741" data-name="Group 2741" transform="translate(92.723 99.746)">
        <path id="Path_5776" data-name="Path 5776" class="cls-45" d="M243.395,237.759a6.023,6.023,0,1,1-6.795-5.136A6.023,6.023,0,0,1,243.395,237.759Z" transform="translate(-231.406 -232.565)"/>
        <g id="Group_2740" data-name="Group 2740" transform="translate(0 0.005)">
          <path id="Path_5777" data-name="Path 5777" class="cls-46" d="M232.883,239.218a6.02,6.02,0,0,1,4.433-6.649,6.1,6.1,0,0,0-.715.053,6.023,6.023,0,0,0,1.659,11.93,5.9,5.9,0,0,0,.7-.144A6.02,6.02,0,0,1,232.883,239.218Z" transform="translate(-231.406 -232.569)"/>
        </g>
      </g>
      <path id="Path_5778" data-name="Path 5778" class="cls-47" d="M311.99,183.066c4.355-1.147,8.763-2.084,13.2-2.961,4.441-.821,8.915-1.512,13.425-2.046,4.51-.558,9.056-.857,13.633-.988a120.126,120.126,0,0,1,13.831.357,71.823,71.823,0,0,1,13.98,2.57,40.45,40.45,0,0,1,6.955,2.71,29.8,29.8,0,0,1,6.636,4.418,20.827,20.827,0,0,1,5.2,7.015,21.883,21.883,0,0,1,.8,2.138q.3,1.1.565,2.221a21.613,21.613,0,0,1,.32,4.494,25.194,25.194,0,0,1-.5,4.331,31.955,31.955,0,0,1-1.187,3.978,38.6,38.6,0,0,1-3.494,7.061c-5.5,8.572-12.585,15.084-19.969,20.878a178.73,178.73,0,0,1-23.336,15.274,283.293,283.293,0,0,1-50.635,21.626q-13.1,4.154-26.516,7.259c-8.951,2.009-18,3.644-27.145,4.78a208.124,208.124,0,0,1-27.693,1.682,118.342,118.342,0,0,1-28.128-3.279A52.781,52.781,0,0,1,178,280.977a36.075,36.075,0,0,1-3.312-2.236c-.538-.418-1.055-.895-1.576-1.344l-.777-.686-.73-.783A20.088,20.088,0,0,1,167,268.49a19.312,19.312,0,0,1-.986-8.717,24.687,24.687,0,0,1,2.264-7.8,45.24,45.24,0,0,1,8.581-11.947,87.624,87.624,0,0,1,10.6-9.119,117.271,117.271,0,0,1,11.465-7.535q5.905-3.423,12.01-6.372c4.094-1.921,8.209-3.763,12.411-5.387-3.811,2.4-7.607,4.79-11.283,7.345-3.7,2.5-7.327,5.106-10.82,7.844-6.955,5.468-13.655,11.329-18.862,18.053a38.323,38.323,0,0,0-6.11,10.449c-1.286,3.584-1.42,7-.113,9.646a10.638,10.638,0,0,0,2.782,3.661l.441.422.523.383c.353.251.673.523,1.04.767a25.572,25.572,0,0,0,2.373,1.345,44.994,44.994,0,0,0,11.254,3.613,88.025,88.025,0,0,0,12.487,1.447c4.246.217,8.534.286,12.847.106a223.379,223.379,0,0,0,25.907-2.548c8.619-1.345,17.218-3,25.723-5.11q12.778-3.059,25.316-7.114c8.367-2.632,16.609-5.635,24.708-8.942,8.117-3.262,16.067-6.91,23.786-10.91a187.027,187.027,0,0,0,22.167-13.341,103.28,103.28,0,0,0,9.9-7.893,57.156,57.156,0,0,0,8.174-8.922,30.825,30.825,0,0,0,2.794-4.8,21.307,21.307,0,0,0,.933-2.4,14.637,14.637,0,0,0,.445-2.315,9.864,9.864,0,0,0-2.885-8.239,27.246,27.246,0,0,0-9.635-6.028,67.367,67.367,0,0,0-12.186-3.486,146.408,146.408,0,0,0-26.228-2.479c-4.447-.1-8.911-.011-13.382.166C320.959,182.461,316.485,182.77,311.99,183.066Z" transform="translate(-162.11 -152.682)"/>
      <g id="Group_2744" data-name="Group 2744" transform="translate(198.563 12.951)">
        <g id="Group_2743" data-name="Group 2743" transform="translate(0 0)">
          <circle id="Ellipse_277" data-name="Ellipse 277" class="cls-48" cx="13.153" cy="13.153" r="13.153" transform="translate(0 9.711) rotate(-21.664)"/>
          <g id="Group_2742" data-name="Group 2742" transform="translate(14.006 3.925)">
            <path id="Path_5779" data-name="Path 5779" class="cls-49" d="M320.948,171.649q-.643.09-1.263.239a13.152,13.152,0,0,1,3.606,25.93c.424-.018.85-.054,1.279-.114a13.153,13.153,0,1,0-3.622-26.055Z" transform="translate(-319.685 -171.522)"/>
          </g>
        </g>
      </g>
      <g id="Group_2747" data-name="Group 2747" transform="translate(0 101.352)">
        <path id="Path_5780" data-name="Path 5780" class="cls-50" d="M197.051,248.455a17.053,17.053,0,1,1-19.238-14.542A17.053,17.053,0,0,1,197.051,248.455Z" transform="translate(-163.106 -233.748)"/>
        <g id="Group_2746" data-name="Group 2746" transform="translate(13.071)">
          <g id="Group_2745" data-name="Group 2745">
            <path id="Path_5781" data-name="Path 5781" class="cls-51" d="M174.37,233.912c-.555.077-1.1.182-1.636.31a17.052,17.052,0,0,1,4.674,33.619c.548-.023,1.1-.071,1.658-.148a17.053,17.053,0,1,0-4.7-33.781Z" transform="translate(-172.734 -233.748)"/>
          </g>
        </g>
      </g>
    </g>
  </g>
</svg>
